<?xml version="1.0" standalone="no"?><!DOCTYPE svg PUBLIC "-//W3C//DTD SVG 1.1//EN" "http://www.w3.org/Graphics/SVG/1.1/DTD/svg11.dtd"><svg t="1651477260750" class="icon" viewBox="0 0 1024 1024" version="1.1" xmlns="http://www.w3.org/2000/svg" p-id="1700" width="16" height="16" xmlns:xlink="http://www.w3.org/1999/xlink"><defs><style type="text/css"></style></defs><path d="M462 256.256a64.256 64.256 0 1 1 128.448 0 64.256 64.256 0 0 1-128.448 0zM462 528a64.256 64.256 0 1 1 128.448 0A64.256 64.256 0 0 1 462 528z m0 271.744a64.256 64.256 0 1 1 128.448 0 64.256 64.256 0 0 1-128.448 0z m291.52-543.488a64.256 64.256 0 1 1 128.448 0 64.256 64.256 0 0 1-128.448 0z m0 271.744a64.256 64.256 0 1 1 128.448 0 64.256 64.256 0 0 1-128.448 0z m0 271.744a64.256 64.256 0 1 1 128.448 0 64.256 64.256 0 0 1-128.448 0z m0 0" fill="#333333" fill-opacity="0.45" p-id="1701"></path></svg>